<svg width="45" height="46" viewBox="0 0 45 46" fill="none" xmlns="http://www.w3.org/2000/svg">
<path d="M1.23608 10.2913C1.23608 10.2913 0.884784 12.3287 1.0959 12.6377C1.30701 12.9459 3.06603 14.7367 3.34723 14.7367C3.62844 14.7367 5.45839 14.9219 5.45839 14.9219L6.65499 12.8229L5.24727 10.7232L2.6438 9.79708L1.23608 10.2913ZM5.45839 4.30182L5.31821 6.3393L7.07722 8.13006H8.97726L9.96274 6.89497L9.54051 4.67227L7.56954 2.82002L5.45839 4.30182ZM14.1141 1.89389L12.4961 3.74614L13.4107 5.35168L14.3252 6.3393L16.5073 6.40153L17.1407 4.796L16.9296 2.75852C16.9296 2.75852 16.2962 1.89389 16.0142 1.89389H14.1141ZM21.0108 4.54928L20.1664 6.83348C20.1664 6.83348 20.3074 9.24141 20.5185 9.42663C20.7296 9.61186 22.7699 10.3528 22.7699 10.3528L24.1075 8.62424L24.3887 5.96885L22.9109 4.61077L21.0108 4.54928ZM10.314 11.8961C10.244 12.0813 8.90717 14.5514 8.90717 14.5514L9.18837 17.2061L8.20289 19.6755L8.76614 22.1457L11.1585 23.689L14.1851 23.3185L16.0142 21.4048L20.4476 22.4539C20.4476 22.4539 23.4032 20.9721 23.3331 20.7869C23.263 20.6016 23.8254 17.5765 23.8254 17.5765C23.8254 17.5765 21.4331 14.9219 20.7997 15.0449C20.7997 15.0449 19.8142 11.7108 17.1407 11.0322C14.4663 10.3528 12.0739 10.6617 12.0739 10.6617L10.314 11.8961ZM21.0809 26.5296C21.0809 26.5296 20.0254 28.8753 20.1664 29.0605C20.3074 29.2457 21.363 31.4684 21.363 31.4684C21.363 31.4684 23.5442 31.7774 23.6143 31.5922C23.6852 31.4069 24.5297 29.431 24.5297 29.431L24.4588 27.0845L21.0809 26.5296ZM29.0332 22.4546L27.5554 24.8003L28.611 27.4557L31.7076 26.2821L32.1299 24.4299L31.3555 22.6399L29.0332 22.4546ZM36.7035 24.1217C36.6334 24.3069 34.6632 26.6526 34.6632 26.6526L35.4368 28.999L37.83 28.9375L39.5189 26.6526L39.0257 24.4299L36.7035 24.1217ZM41.2779 30.0489L39.1668 32.3331L38.7445 34.3706L39.9411 35.1115L43.1079 34.3706C43.1079 34.3706 43.9523 32.765 43.9523 32.5798C43.9523 32.3946 43.6002 30.4808 43.6002 30.4808L41.2779 30.0489ZM26.3588 32.5798C26.1925 33.3111 24.5297 35.9138 24.5297 35.9138C24.5297 35.9138 22.0664 37.3342 21.9254 37.5809C21.7852 37.8276 21.292 40.2355 21.292 40.2355L22.5587 42.3352L24.5998 43.2614L28.611 42.2115L31.3555 44.8047C31.3555 44.8047 34.1 45.1751 35.2257 44.1253C36.3522 43.0761 36.8445 40.9149 36.8445 40.9149L35.5778 38.6922L36.0701 35.7286C36.0701 35.7286 35.1556 31.7774 32.9034 31.4069C30.6521 31.0365 26.5699 31.6537 26.3588 32.5798Z" fill="black"/>
<path d="M20.6165 15.0123C20.5865 14.8475 20.5488 14.6839 20.5033 14.5218C19.6487 11.5456 16.3908 9.70076 13.2241 10.4002C10.0582 11.0996 8.18431 14.0795 9.03891 17.0549C9.0862 17.2187 9.14278 17.378 9.20442 17.5343C8.23076 18.4078 7.77559 19.7333 8.15982 21.0699C8.72899 23.054 10.9018 24.2839 13.0121 23.8179C14.4342 23.5037 16.1442 21.2151 16.3182 21.1773C16.4921 21.1388 19.2341 22.4428 20.6553 22.1286C22.7665 21.6619 24.0154 19.6763 23.4454 17.6921C23.062 16.3555 21.9457 15.3768 20.6165 15.0123Z" fill="black" stroke="white" stroke-width="1.25" stroke-miterlimit="10" stroke-linecap="round" stroke-linejoin="round"/>
<path d="M8.93446 8.27216C10.1037 7.87549 10.5385 6.38969 9.90558 4.95353C9.27264 3.51738 7.81166 2.67472 6.64239 3.0714C5.47312 3.46807 5.03834 4.95387 5.67127 6.39003C6.30421 7.82618 7.76519 8.66884 8.93446 8.27216Z" fill="black" stroke="white" stroke-width="1.25" stroke-miterlimit="10" stroke-linecap="round" stroke-linejoin="round"/>
<path d="M5.43889 14.735C6.47765 14.1192 6.52324 12.5857 5.54071 11.3099C4.55819 10.034 2.91961 9.49892 1.88085 10.1147C0.842083 10.7305 0.796494 12.2639 1.77902 13.5398C2.76155 14.8156 4.40012 15.3507 5.43889 14.735Z" fill="black" stroke="white" stroke-width="1.25" stroke-miterlimit="10" stroke-linecap="round" stroke-linejoin="round"/>
<path d="M24.5074 7.59295C24.6386 6.05749 23.7316 4.74605 22.4815 4.66377C21.2314 4.58149 20.1115 5.75953 19.9803 7.295C19.849 8.83046 20.756 10.1419 22.0061 10.2242C23.2562 10.3064 24.3761 9.12841 24.5074 7.59295Z" fill="black" stroke="white" stroke-width="1.25" stroke-miterlimit="10" stroke-linecap="round" stroke-linejoin="round"/>
<path d="M15.5896 6.80711C16.8298 6.64659 17.6277 5.28156 17.3718 3.75824C17.1158 2.23492 15.9029 1.13017 14.6627 1.2907C13.4225 1.45122 12.6246 2.81625 12.8805 4.33957C13.1365 5.86289 14.3494 6.96764 15.5896 6.80711Z" fill="black" stroke="white" stroke-width="1.25" stroke-miterlimit="10" stroke-linecap="round" stroke-linejoin="round"/>
<path d="M35.658 38.6211C35.723 38.4655 35.7847 38.3077 35.8362 38.1454C36.7727 35.1885 34.9816 32.1701 31.836 31.4032C28.6904 30.6364 25.3818 32.4109 24.4453 35.3685C24.3937 35.5315 24.3541 35.6945 24.3186 35.8568C22.9793 36.1924 21.8367 37.1475 21.4162 38.4751C20.7921 40.4459 21.9862 42.459 24.083 42.9702C25.4958 43.314 28.2715 42.0685 28.4455 42.1107C28.6194 42.153 30.2644 44.4772 31.6772 44.821C33.774 45.3322 35.9798 44.149 36.6047 42.1774C37.0252 40.8497 36.6072 39.5146 35.658 38.6211Z" fill="black" stroke="white" stroke-width="1.25" stroke-miterlimit="10" stroke-linecap="round" stroke-linejoin="round"/>
<path d="M32.0255 25.2267C32.2856 23.7039 31.4914 22.3373 30.2516 22.1743C29.0118 22.0113 27.7959 23.1136 27.5358 24.6364C27.2758 26.1592 28.07 27.5258 29.3098 27.6888C30.5496 27.8518 31.7655 26.7494 32.0255 25.2267Z" fill="black" stroke="white" stroke-width="1.25" stroke-miterlimit="10" stroke-linecap="round" stroke-linejoin="round"/>
<path d="M22.6263 31.7898C23.8763 31.7061 24.7813 30.3936 24.6477 28.8583C24.5142 27.323 23.3926 26.1462 22.1426 26.23C20.8926 26.3137 19.9875 27.6261 20.1211 29.1615C20.2547 30.6968 21.3763 31.8735 22.6263 31.7898Z" fill="black" stroke="white" stroke-width="1.25" stroke-miterlimit="10" stroke-linecap="round" stroke-linejoin="round"/>
<path d="M43.225 33.862C44.2053 32.5848 44.157 31.0514 43.1172 30.4371C42.0774 29.8227 40.4397 30.36 39.4594 31.6372C38.4791 32.9144 38.5274 34.4478 39.5673 35.0621C40.6071 35.6765 42.2447 35.1392 43.225 33.862Z" fill="black" stroke="white" stroke-width="1.25" stroke-miterlimit="10" stroke-linecap="round" stroke-linejoin="round"/>
<path d="M39.1873 27.434C39.8243 25.9993 39.3938 24.5125 38.2257 24.1133C37.0576 23.714 35.5942 24.5534 34.9571 25.9881C34.32 27.4229 34.7505 28.9096 35.9187 29.3089C37.0868 29.7082 38.5502 28.8688 39.1873 27.434Z" fill="black" stroke="white" stroke-width="1.25" stroke-miterlimit="10" stroke-linecap="round" stroke-linejoin="round"/>
</svg>
