<svg width="66" height="66" viewBox="0 0 66 66" fill="none" xmlns="http://www.w3.org/2000/svg">
<path d="M33 66C32.1222 66 31.285 65.8354 30.4884 65.5062C29.6918 65.1771 28.9654 64.7107 28.3092 64.1072L1.89277 37.6908C1.28928 37.0324 0.822942 36.305 0.493765 35.5083C0.164588 34.7117 0 33.8756 0 33C0 32.1222 0.164588 31.2718 0.493765 30.4489C0.822942 29.6259 1.28928 28.9127 1.89277 28.3092L28.3092 1.89279C28.9676 1.23444 29.6951 0.753839 30.4917 0.450996C31.2883 0.148153 32.1244 -0.00217083 33 2.36818e-05C33.8778 2.36818e-05 34.7282 0.151445 35.5511 0.454288C36.3741 0.75713 37.0873 1.23663 37.6908 1.89279L64.1072 28.3092C64.7656 28.9127 65.2462 29.6259 65.549 30.4489C65.8519 31.2718 66.0022 32.1222 66 33C66 33.8778 65.8497 34.715 65.549 35.5116C65.2484 36.3082 64.7678 37.0346 64.1072 37.6908L37.6908 64.1072C37.0873 64.7107 36.3741 65.1771 35.5511 65.5062C34.7282 65.8354 33.8778 66 33 66ZM33 59.4165L59.4164 33L33 6.58356L6.58354 33L33 59.4165ZM29.7082 36.2918H36.2918V16.5412H29.7082V36.2918ZM33 46.1671C33.9327 46.1671 34.715 45.8511 35.347 45.2191C35.979 44.587 36.294 43.8058 36.2918 42.8753C36.2918 41.9427 35.9757 41.1603 35.3437 40.5283C34.7117 39.8963 33.9305 39.5814 33 39.5836C32.0673 39.5836 31.285 39.8996 30.653 40.5316C30.0209 41.1636 29.706 41.9448 29.7082 42.8753C29.7082 43.808 30.0242 44.5903 30.6562 45.2224C31.2883 45.8544 32.0695 46.1693 33 46.1671Z" fill="#E73F3F"/>
</svg>
