<svg width="44" height="66" viewBox="0 0 44 66" fill="none" xmlns="http://www.w3.org/2000/svg">
<path d="M17.2857 57H26.7143C27.1333 57 27.5 56.85 27.8143 56.55C28.1286 56.25 28.2857 55.9 28.2857 55.5C28.2857 55.1 28.1286 54.75 27.8143 54.45C27.5 54.15 27.1333 54 26.7143 54H17.2857C16.8667 54 16.5 54.15 16.1857 54.45C15.8714 54.75 15.7143 55.1 15.7143 55.5C15.7143 55.9 15.8714 56.25 16.1857 56.55C16.5 56.85 16.8667 57 17.2857 57ZM6.28572 66C4.55715 66 3.07686 65.412 1.84486 64.236C0.612862 63.06 -0.0020899 61.648 5.33592e-06 60V6C5.33592e-06 4.35 0.616005 2.937 1.848 1.761C3.08 0.585005 4.55924 -0.00199491 6.28572 5.09338e-06H37.7143C39.4429 5.09338e-06 40.9231 0.588005 42.1551 1.764C43.3871 2.94 44.0021 4.352 44 6V60C44 61.65 43.384 63.063 42.152 64.239C40.92 65.415 39.4408 66.002 37.7143 66H6.28572ZM6.28572 51V60H37.7143V51H6.28572ZM6.28572 45H37.7143V15H6.28572V45ZM6.28572 9H37.7143V6H6.28572V9Z" fill="#E73F3F"/>
</svg>
